<?xml version="1.0" standalone="no"?>
<!DOCTYPE svg PUBLIC "-//W3C//DTD SVG 20010904//EN"
 "http://www.w3.org/TR/2001/REC-SVG-20010904/DTD/svg10.dtd">
<svg version="1.0" xmlns="http://www.w3.org/2000/svg"
 width="3194.000000pt" height="2672.000000pt" viewBox="0 0 3194.000000 2672.000000"
 preserveAspectRatio="xMidYMid meet">

<g transform="translate(0.000000,2672.000000) scale(0.100000,-0.100000)"
fill="#000000" stroke="none">
<path d="M11905 26704 c-1132 -66 -2106 -311 -2993 -751 -1128 -560 -2004
-1404 -2600 -2508 -472 -874 -764 -1942 -852 -3115 -30 -410 -31 -653 -5
-1184 14 -280 25 -536 25 -568 l0 -58 -1522 0 c-1000 0 -1563 -4 -1638 -11
-567 -52 -1072 -279 -1492 -670 -347 -323 -611 -775 -717 -1229 -11 -47 -32
-197 -46 -334 l-25 -249 25 -246 c27 -266 32 -292 77 -451 115 -408 351 -798
667 -1103 377 -362 811 -578 1356 -674 95 -17 553 -18 8793 -20 l8692 -3 0
-3558 c0 -3782 -2 -3620 45 -4027 89 -770 249 -1463 482 -2085 549 -1468 1480
-2535 2768 -3170 645 -319 1342 -515 2140 -604 311 -35 446 -41 900 -41 478 1
634 9 1050 56 1029 116 2165 411 3265 847 133 53 174 74 172 86 -4 23 -1641
4869 -1647 4874 -2 3 -46 -22 -97 -55 -131 -85 -151 -96 -258 -143 -379 -167
-811 -254 -1260 -254 -402 1 -704 63 -998 206 -462 225 -772 638 -891 1190
-60 279 -55 -15 -58 3485 l-3 3193 2217 3 c2440 3 2258 -2 2528 62 770 181
1417 720 1724 1437 232 541 266 1151 94 1718 -241 797 -866 1422 -1663 1663
-110 33 -235 61 -400 89 -60 10 -1948 13 -9367 15 l-9293 3 0 53 c1 107 30
497 45 602 121 825 428 1422 911 1771 108 78 334 192 465 234 122 39 284 75
407 92 142 18 518 15 677 -6 445 -58 916 -209 1132 -362 34 -24 66 -44 72 -44
5 0 32 69 60 153 1035 3168 1614 4945 1615 4956 1 17 -397 151 -759 256 -1313
382 -2644 549 -3820 479z m890 -224 c1049 -43 2058 -225 3168 -572 125 -39
227 -76 227 -81 0 -11 -1500 -4610 -1505 -4615 -2 -2 -41 13 -87 33 -45 20
-149 59 -230 86 -590 197 -1215 242 -1718 123 -540 -127 -951 -412 -1255 -869
-225 -337 -377 -755 -465 -1275 -24 -146 -36 -268 -55 -580 -14 -217 -25 -405
-25 -417 l0 -23 9398 -3 c9070 -2 9401 -3 9507 -21 262 -44 483 -114 698 -223
451 -229 798 -579 1018 -1028 145 -297 215 -577 226 -910 30 -880 -444 -1690
-1225 -2093 -207 -107 -406 -174 -647 -220 l-140 -26 -2333 -3 -2332 -3 3
-3273 c3 -3576 -1 -3318 58 -3612 99 -499 321 -903 644 -1174 232 -195 498
-327 815 -405 387 -94 833 -100 1297 -16 250 45 559 140 751 231 58 27 109 46
113 42 10 -11 1490 -4395 1485 -4400 -18 -19 -641 -241 -926 -331 -1933 -610
-3705 -715 -5196 -306 -679 186 -1323 498 -1854 899 -619 468 -1142 1104
-1519 1845 -396 779 -660 1723 -771 2752 -41 387 -40 254 -40 4090 l0 3658
-8782 3 c-8266 2 -8789 3 -8888 20 -710 117 -1311 532 -1650 1142 -104 188
-177 371 -219 555 -12 52 -32 195 -45 318 l-22 223 22 222 c26 250 33 291 76
432 158 525 501 972 976 1274 189 120 461 232 682 281 255 57 153 54 1998 57
l1703 4 -6 77 c-3 42 -17 320 -31 617 -21 439 -25 599 -21 855 19 1043 213
2034 572 2915 83 206 289 616 405 810 650 1081 1572 1869 2767 2366 974 405
2160 598 3378 549z"/>
<path d="M22325 26194 c-424 -41 -752 -136 -1095 -315 -243 -128 -453 -283
-656 -484 -240 -238 -387 -443 -534 -740 -134 -271 -211 -516 -262 -830 l-22
-140 -3 -2292 -3 -2293 2770 0 2770 0 -3 2308 c-2 2114 -4 2316 -20 2410 -103
625 -362 1144 -782 1565 -437 438 -963 701 -1589 793 -96 14 -486 26 -571 18z
m385 -234 c513 -40 1005 -235 1406 -558 527 -424 873 -1065 933 -1732 7 -76
11 -835 11 -2227 l0 -2113 -2540 0 -2540 0 0 2043 c0 1140 5 2109 10 2193 11
181 31 318 70 475 300 1200 1424 2014 2650 1919z"/>
<path d="M5553 7758 c3 -4752 4 -5161 19 -5258 58 -362 129 -593 273 -885 134
-273 298 -500 524 -726 428 -428 934 -684 1541 -781 125 -19 181 -23 410 -22
299 0 432 15 680 78 772 195 1431 719 1788 1423 144 283 216 507 279 863 16
88 17 474 20 5278 l3 5182 -2770 0 -2770 0 3 -5152z m5304 -120 c-2 -4761 -3
-5049 -20 -5148 -113 -677 -433 -1227 -952 -1640 -273 -217 -652 -398 -990
-474 -215 -48 -325 -60 -565 -60 -233 0 -364 13 -550 54 -371 83 -717 247
-1030 488 -109 84 -338 313 -422 422 -328 426 -506 894 -538 1421 -6 93 -10
2082 -10 5067 l0 4912 2540 0 2540 0 -3 -5042z"/>
</g>
</svg>
